<?xml version="1.0" standalone="no"?>
<!DOCTYPE svg PUBLIC "-//W3C//DTD SVG 20010904//EN"
 "http://www.w3.org/TR/2001/REC-SVG-20010904/DTD/svg10.dtd">
<svg version="1.0" xmlns="http://www.w3.org/2000/svg"
 width="290.000000pt" height="290.000000pt" viewBox="0 0 290.000000 290.000000"
 preserveAspectRatio="xMidYMid meet">
<metadata>
Created by potrace 1.11, written by Peter Selinger 2001-2013
</metadata>
<g transform="translate(0.000000,290.000000) scale(0.100000,-0.100000)"
fill="#000000" stroke="none">
<path d="M285 2776 c-95 -30 -168 -96 -201 -182 -18 -47 -19 -92 -19 -1199 0
-1110 1 -1152 19 -1200 25 -65 94 -137 159 -166 l52 -24 1160 0 1160 0 52 24
c65 29 134 101 159 166 18 48 19 90 19 1200 0 1110 -1 1152 -19 1200 -25 65
-94 137 -159 166 l-52 24 -1145 2 c-904 1 -1153 -1 -1185 -11z m2310 -241 l25
-24 0 -1116 0 -1116 -25 -24 -24 -25 -1116 0 -1116 0 -24 25 -25 24 0 1116 0
1116 25 24 24 25 1116 0 1116 0 24 -25z"/>
<path d="M1325 2199 c-445 -46 -730 -290 -801 -684 -18 -103 -18 -304 1 -392
52 -246 178 -415 398 -533 141 -76 298 -110 502 -110 213 1 375 34 435 90 41
39 41 90 1 131 -37 36 -79 38 -171 7 -58 -20 -86 -22 -250 -22 -183 0 -186 0
-278 32 -152 52 -244 122 -323 245 -66 103 -84 177 -84 352 1 110 5 167 18
215 63 239 221 389 472 452 126 31 363 31 480 -1 214 -57 354 -184 409 -371
24 -81 31 -213 16 -326 -22 -175 -68 -254 -149 -254 -26 0 -44 7 -57 21 -17
19 -19 43 -24 273 l-5 251 -29 63 c-70 152 -221 220 -464 210 -134 -6 -252
-39 -330 -92 -86 -58 -101 -108 -50 -156 31 -29 76 -25 159 15 176 84 356 85
447 2 27 -25 52 -104 52 -163 l0 -42 -66 33 c-86 44 -176 59 -300 52 -141 -7
-213 -35 -286 -107 -70 -71 -93 -135 -86 -245 13 -197 164 -304 428 -305 149
0 259 37 347 117 26 24 39 31 42 21 10 -33 98 -106 141 -118 58 -16 166 -7
224 19 88 38 171 138 212 252 44 125 56 319 29 462 -82 429 -495 665 -1060
606z m280 -893 c73 -36 98 -73 92 -139 -5 -63 -30 -96 -98 -130 -68 -34 -196
-47 -278 -27 -135 32 -182 185 -85 276 45 43 90 54 210 50 88 -2 110 -7 159
-30z"/>
</g>
</svg>
